<svg width="40" height="40" viewBox="0 0 40 40" fill="none" xmlns="http://www.w3.org/2000/svg">
<path d="M22 19H16M18 23H16M24 15H16M28 14.8V25.2C28 26.8802 28 27.7202 27.673 28.362C27.3854 28.9265 26.9265 29.3854 26.362 29.673C25.7202 30 24.8802 30 23.2 30H16.8C15.1198 30 14.2798 30 13.638 29.673C13.0735 29.3854 12.6146 28.9265 12.327 28.362C12 27.7202 12 26.8802 12 25.2V14.8C12 13.1198 12 12.2798 12.327 11.638C12.6146 11.0735 13.0735 10.6146 13.638 10.327C14.2798 10 15.1198 10 16.8 10H23.2C24.8802 10 25.7202 10 26.362 10.327C26.9265 10.6146 27.3854 11.0735 27.673 11.638C28 12.2798 28 13.1198 28 14.8Z" stroke="white" stroke-width="2" stroke-linecap="round" stroke-linejoin="round"/>
</svg>
