<svg width="40" height="40" viewBox="0 0 40 40" fill="none" xmlns="http://www.w3.org/2000/svg">
<path d="M16.126 22.0007C16.5701 23.7259 18.1362 25.0007 20 25.0007C21.8638 25.0007 23.4299 23.7259 23.874 22.0007M19.0177 10.7647L12.2354 16.0399C11.782 16.3925 11.5553 16.5688 11.392 16.7896C11.2474 16.9852 11.1396 17.2055 11.074 17.4398C11 17.7043 11 17.9914 11 18.5658V25.8007C11 26.9208 11 27.4809 11.218 27.9087C11.4097 28.285 11.7157 28.591 12.092 28.7827C12.5198 29.0007 13.0799 29.0007 14.2 29.0007H25.8C26.9201 29.0007 27.4802 29.0007 27.908 28.7827C28.2843 28.591 28.5903 28.285 28.782 27.9087C29 27.4809 29 26.9208 29 25.8007V18.5658C29 17.9914 29 17.7043 28.926 17.4398C28.8604 17.2055 28.7526 16.9852 28.608 16.7896C28.4447 16.5688 28.218 16.3925 27.7646 16.0399L20.9823 10.7647C20.631 10.4915 20.4553 10.3549 20.2613 10.3023C20.0902 10.256 19.9098 10.256 19.7387 10.3023C19.5447 10.3549 19.369 10.4915 19.0177 10.7647Z" stroke="white" stroke-width="2" stroke-linecap="round" stroke-linejoin="round"/>
</svg>
