<svg width="21" height="19" viewBox="0 0 21 19" fill="none" xmlns="http://www.w3.org/2000/svg">
<path d="M19.3542 11.4879C18.0162 10.9819 17.1212 9.76689 17.0202 8.31789C16.9212 6.90589 17.6132 5.65189 18.8712 4.96289L19.9172 4.38989L19.1702 3.45989C17.9152 1.89689 16.1192 0.962891 14.3662 0.962891C13.1512 0.962891 12.3082 1.28089 11.6312 1.53689C11.1532 1.71789 10.7762 1.85989 10.3622 1.85989C9.89022 1.85989 9.42422 1.69389 8.88422 1.50189C8.17622 1.24989 7.37422 0.963891 6.34422 0.963891C4.35422 0.963891 2.34722 2.15189 1.10722 4.06189C-0.74378 6.91089 -0.23578 11.7959 2.31522 15.6779C3.32622 17.2159 4.74322 18.9829 6.75022 19.0009C6.76322 19.0009 6.77622 19.0009 6.78922 19.0009C8.43222 19.0009 8.79222 18.1249 10.3872 18.1149C12.1292 18.1969 12.3492 19.0079 13.9762 18.9969C15.9372 18.9789 17.3512 17.2259 18.4752 15.5129C19.1392 14.5059 19.3962 13.9789 19.9132 12.8349L20.3512 11.8649L19.3542 11.4879Z" fill="#757185"/>
</svg>
