<svg width="22" height="22" viewBox="0 0 22 22" fill="none" xmlns="http://www.w3.org/2000/svg">
<path d="M21.5487 8.99983H11.0483V13.4997H16.9993C16.0487 16.5 13.6993 17.5001 11.0006 17.5001C9.95512 17.5013 8.92477 17.2504 7.99695 16.7686C7.06913 16.2867 6.27123 15.5882 5.67093 14.7323C5.07063 13.8763 4.68566 12.8882 4.54867 11.8517C4.41168 10.8153 4.52672 9.76105 4.88402 8.77853C5.24132 7.79601 5.83035 6.91416 6.60112 6.20782C7.3719 5.50148 8.30167 4.99147 9.31158 4.72108C10.3215 4.45069 11.3817 4.42788 12.4023 4.6546C13.4229 4.88132 14.3737 5.35087 15.1742 6.02342L18.4439 2.90675C17.1269 1.69448 15.534 0.821908 13.8034 0.364771C12.0728 -0.0923672 10.2567 -0.120264 8.51288 0.283503C6.76903 0.687269 5.15005 1.5105 3.79646 2.68175C2.44286 3.853 1.39554 5.33688 0.745392 7.00462C0.0952396 8.67235 -0.138103 10.4736 0.0656153 12.2519C0.269333 14.0303 0.903956 15.732 1.91441 17.2095C2.92486 18.6871 4.28062 19.8957 5.86401 20.7305C7.44741 21.5653 9.21061 22.001 11.0006 22C17.0662 22 22.5506 17.9997 21.5487 8.99983Z" fill="#757185"/>
</svg>
