<svg width="111" height="44" viewBox="0 0 111 44" fill="none" xmlns="http://www.w3.org/2000/svg">
<path d="M21 43H8.11111C4.18375 43 1 39.5811 1 35.3636V8.63636C1 4.41892 4.18375 1 8.11111 1H21" stroke="url(#paint0_linear_1001_26961)" stroke-width="2"/>
<mask id="path-2-inside-1_1001_26961" fill="white">
<path d="M21 0H90V44H21V0Z"/>
</mask>
<path d="M21 2H90V-2H21V2ZM90 42H21V46H90V42Z" fill="url(#paint1_angular_1001_26961)" mask="url(#path-2-inside-1_1001_26961)"/>
<path d="M32.6324 26.144C32.1044 26.144 31.5804 26.048 31.0604 25.856C30.5484 25.664 30.0804 25.384 29.6564 25.016L30.6764 23.804C30.9724 24.044 31.2964 24.24 31.6484 24.392C32.0084 24.544 32.3764 24.62 32.7524 24.62C33.1284 24.62 33.4044 24.556 33.5804 24.428C33.7644 24.3 33.8564 24.136 33.8564 23.936C33.8564 23.752 33.8084 23.608 33.7124 23.504C33.6164 23.392 33.4764 23.296 33.2924 23.216C33.1084 23.128 32.8924 23.032 32.6444 22.928L31.6364 22.496C31.3484 22.384 31.0764 22.236 30.8204 22.052C30.5644 21.86 30.3564 21.628 30.1964 21.356C30.0444 21.076 29.9684 20.744 29.9684 20.36C29.9684 19.928 30.0884 19.54 30.3284 19.196C30.5764 18.844 30.9124 18.564 31.3364 18.356C31.7684 18.14 32.2684 18.032 32.8364 18.032C33.3084 18.032 33.7724 18.12 34.2284 18.296C34.6844 18.472 35.0884 18.728 35.4404 19.064L34.5404 20.18C34.2684 19.98 33.9964 19.828 33.7244 19.724C33.4524 19.612 33.1244 19.556 32.7404 19.556C32.4524 19.556 32.2164 19.616 32.0324 19.736C31.8484 19.856 31.7564 20.032 31.7564 20.264C31.7564 20.416 31.8124 20.544 31.9244 20.648C32.0364 20.752 32.1884 20.844 32.3804 20.924C32.5724 21.004 32.7924 21.092 33.0404 21.188L33.9884 21.596C34.3404 21.724 34.6404 21.884 34.8884 22.076C35.1364 22.26 35.3284 22.488 35.4644 22.76C35.6004 23.032 35.6684 23.352 35.6684 23.72C35.6684 24.152 35.5484 24.552 35.3084 24.92C35.0764 25.288 34.7324 25.584 34.2764 25.808C33.8284 26.032 33.2804 26.144 32.6324 26.144ZM37.5597 26V24.512H39.3837V19.664H37.5597V18.176H42.9837V19.664H41.1597V24.512H42.9837V26H37.5597ZM48.403 26.144C47.739 26.144 47.135 25.996 46.591 25.7C46.047 25.396 45.615 24.948 45.295 24.356C44.975 23.756 44.815 23.016 44.815 22.136C44.815 21.264 44.975 20.524 45.295 19.916C45.615 19.3 46.047 18.832 46.591 18.512C47.143 18.192 47.755 18.032 48.427 18.032C48.955 18.032 49.407 18.136 49.783 18.344C50.159 18.544 50.471 18.772 50.719 19.028L49.747 20.12C49.579 19.952 49.395 19.816 49.195 19.712C48.995 19.608 48.739 19.556 48.427 19.556C48.091 19.556 47.787 19.66 47.515 19.868C47.243 20.068 47.027 20.356 46.867 20.732C46.715 21.108 46.639 21.556 46.639 22.076C46.639 22.612 46.707 23.072 46.843 23.456C46.979 23.832 47.187 24.12 47.467 24.32C47.747 24.52 48.091 24.62 48.499 24.62C48.651 24.62 48.795 24.6 48.931 24.56C49.075 24.52 49.187 24.46 49.267 24.38V23.036H48.127V21.596H50.851V25.196C50.587 25.444 50.235 25.664 49.795 25.856C49.363 26.048 48.899 26.144 48.403 26.144ZM52.6943 26V18.176H54.5063L56.1503 22.064L56.8223 23.792H56.8703C56.8303 23.376 56.7783 22.912 56.7143 22.4C56.6503 21.888 56.6183 21.404 56.6183 20.948V18.176H58.3103V26H56.4983L54.8543 22.1L54.1823 20.396H54.1343C54.1743 20.82 54.2263 21.284 54.2903 21.788C54.3543 22.284 54.3863 22.764 54.3863 23.228V26H52.6943ZM68.021 26V24.512H69.845V19.664H68.021V18.176H73.445V19.664H71.621V24.512H73.445V26H68.021ZM75.5403 26V18.176H77.3523L78.9963 22.064L79.6683 23.792H79.7163C79.6763 23.376 79.6243 22.912 79.5603 22.4C79.4963 21.888 79.4643 21.404 79.4643 20.948V18.176H81.1563V26H79.3443L77.7003 22.1L77.0283 20.396H76.9803C77.0203 20.82 77.0723 21.284 77.1363 21.788C77.2003 22.284 77.2323 22.764 77.2323 23.228V26H75.5403Z" fill="white"/>
<path d="M90 43H95.0282H102.24C106.526 43 110 39.5811 110 35.3636V16.8586C110 14.5929 108.978 12.4442 107.209 10.9933L97.187 2.77111C95.7921 1.62674 94.0336 1 92.2175 1H90" stroke="url(#paint2_linear_1001_26961)" stroke-width="2"/>
<defs>
<linearGradient id="paint0_linear_1001_26961" x1="11" y1="1" x2="11" y2="43" gradientUnits="userSpaceOnUse">
<stop stop-color="#89F9E8"/>
<stop offset="1" stop-color="#FACB7B"/>
</linearGradient>
<radialGradient id="paint1_angular_1001_26961" cx="0" cy="0" r="1" gradientUnits="userSpaceOnUse" gradientTransform="translate(55.5 22) rotate(90) scale(22 34.5)">
<stop offset="0.130059" stop-color="#FACB7C"/>
<stop offset="0.358399" stop-color="#89F9E8"/>
<stop offset="0.629894" stop-color="#9299FC"/>
<stop offset="0.880516" stop-color="#D77DEE"/>
</radialGradient>
<linearGradient id="paint2_linear_1001_26961" x1="92.9268" y1="1" x2="92.9268" y2="43" gradientUnits="userSpaceOnUse">
<stop stop-color="#9099FC"/>
<stop offset="1" stop-color="#D87CEE"/>
</linearGradient>
</defs>
</svg>
